HIERARCHY
ROOT Hips
{
	OFFSET 0.00000 0.00000 0.00000
	CHANNELS 6 Xposition Yposition Zposition Yrotation Zrotation Xrotation 
	JOINT Lumbar
	{
		OFFSET 0 0 0
		CHANNELS 3 Zrotation Xrotation Yrotation
		JOINT Neck
		{
			OFFSET 0.00 0.2701 0.00
			CHANNELS 3 Zrotation Xrotation Yrotation
			End Site
			{
				OFFSET 0.00 0.1379 0.00
			}
		}
		JOINT RightShoulder
		{
			OFFSET 0.0119 0.2289 0.1181
			CHANNELS 3 Zrotation Xrotation Yrotation
			JOINT RightElbow
			{
				OFFSET 0.00 -0.1475 0.00
				CHANNELS 2 Zrotation Yrotation
				JOINT RightWrist
				{
					OFFSET 0.00 -0.1605 0.00
					CHANNELS 2 Zrotation Xrotation
					End Site
					{
						OFFSET 0.0040 -0.1068 0.0006
					}
				}
			}
		}
		JOINT LeftShoulder
		{
			OFFSET 0.0119 0.2289 -0.1181
			CHANNELS 3 Zrotation Xrotation Yrotation
			JOINT LeftElbow
			{
				OFFSET 0.00 -0.1475 0.00
				CHANNELS 2 Zrotation Yrotation
				JOINT LeftWrist
				{
					OFFSET 0.00 -0.1605 0.00
					CHANNELS 2 Zrotation Xrotation
					End Site
					{
						OFFSET 0.0040 -0.1068 -0.0006
					}
				}
			}
		}
	}
	JOINT RightHip
	{
		OFFSET 0.0316 -0.0424 0.0458
		CHANNELS 3 Zrotation Xrotation Yrotation
		JOINT RightKnee
		{
			OFFSET 0.00 -0.2438 0.00
			CHANNELS 1 Zrotation
			JOINT RightAnkle
			{
				OFFSET 0.00 -0.2449 0.00
				CHANNELS 3 Zrotation Xrotation Yrotation
				End Site
				{
					OFFSET 0.1237 -0.0542 0.0051
				}
			}
		}
	}
	JOINT LeftHip
	{
		OFFSET 0.0316 -0.0424 -0.0458
		CHANNELS 3 Zrotation Xrotation Yrotation
		JOINT LeftKnee
		{
			OFFSET 0.00 -0.2438 0.00
			CHANNELS 1 Zrotation
			JOINT LeftAnkle
			{
				OFFSET 0.00 -0.2449 0.00
				CHANNELS 3 Zrotation Xrotation Yrotation
				End Site
				{
					OFFSET 0.1237 -0.0542 -0.0051
				}
			}
		}
	}
}
MOTION
Frames: 19
Frame Time: 0.02
-0.00363 -0.0019 0.00585 33.19882 -23.63327 -6.94947 41.60214 2.16843 -7.02664 7.70167 0.52333 -0.22295 6.19568 -13.61134 5.55966 32.95508 85.02831 1.03043 -0.8644 28.16956 8.65815 -20.75809 49.54129 -84.00204 1.25907 0.33517 36.75363 0.42988 -2.00185 -19.67964 -6.43011 -3.63643 -2.48821 46.64368 3.45055 1.66602 -35.88013 -6.56187 4.49396 3.34775
-0.00359 -0.002 0.00371 33.14833 -23.82867 -7.03578 41.93285 2.18951 -7.16434 7.24666 0.6518 -0.22405 4.30923 -13.59372 4.04963 32.1364 85.05923 1.08127 -0.79323 24.86981 8.98314 -20.16859 49.22015 -84.87503 1.68766 0.18705 36.82879 0.29704 -2.04171 -19.65856 -6.41026 -3.61693 -2.48018 46.27114 3.74921 1.79684 -35.19492 -6.55037 4.39636 3.25683
-0.00356 -0.0021 0.00158 33.09788 -24.02413 -7.12175 42.26335 2.21035 -7.30207 6.79196 0.77978 -0.22514 2.42565 -13.57581 2.54317 31.32149 85.09179 1.13259 -0.72178 21.57549 9.30835 -19.58157 48.89926 -85.74368 2.11511 0.04015 36.90427 0.16413 -2.08193 -19.63734 -6.39048 -3.59747 -2.47216 45.89987 4.04669 1.92853 -34.51101 -6.53888 4.2989 3.16611
-0.00352 -0.00219 -0.00056 33.04753 -24.21905 -7.20778 42.59319 2.23133 -7.43944 6.33815 0.90784 -0.22624 0.54449 -13.55825 1.03778 30.50557 85.12249 1.18328 -0.6508 18.28516 9.63257 -18.99406 48.57896 -86.6134 2.54229 -0.10733 36.9793 0.03161 -2.12175 -19.61629 -6.37069 -3.57803 -2.46416 45.52849 4.3444 2.05922 -33.82776 -6.52742 4.20157 3.07546
-0.00348 -0.00229 -0.00269 32.99718 -24.41364 -7.29419 42.92287 2.25261 -7.57654 5.88451 1.03642 -0.22733 -1.3383 -13.54094 -0.47123 29.6853 85.15199 1.23353 -0.58016 14.99111 9.95602 -18.40363 48.25876 -87.4889 2.97088 -0.25648 37.05379 -0.10064 -2.16101 -19.59546 -6.35084 -3.55855 -2.45613 45.15579 4.64339 2.18841 -33.14356 -6.51596 4.10419 2.98464
-0.00345 -0.00239 -0.00483 32.94652 -24.61087 -7.37924 43.25503 2.27254 -7.71556 5.42766 1.16313 -0.22843 -3.22334 -13.52167 -1.97246 28.88164 85.1916 1.28727 -0.50693 11.69642 10.28486 -17.8237 47.9365 -88.34358 3.39611 -0.39874 37.13131 -0.2349 -2.20327 -19.57344 -6.3312 -3.53914 -2.44814 44.78754 4.93769 2.32523 -32.46034 -6.50441 4.00659 2.89414
-0.00341 -0.00248 -0.00696 32.89657 -24.80267 -7.46687 43.58198 2.29513 -7.8507 4.97762 1.29344 -0.22952 -5.10206 -13.50678 -3.48647 28.0458 85.20794 1.33317 -0.43936 8.40695 10.6027 -17.22384 47.61851 -89.23694 3.82672 -0.55426 37.20274 -0.36503 -2.23945 -19.55381 -6.31116 -3.51962 -2.4401 44.41078 5.24109 2.44699 -31.77578 -6.49305 3.90947 2.80308
-0.00338 -0.00258 -0.00909 32.84589 -24.99927 -7.55223 43.91346 2.31534 -7.98919 4.52154 1.42049 -0.23062 -6.98609 -13.4871 -4.99094 27.23899 85.25098 1.38768 -0.36592 5.11212 10.93031 -16.64134 47.29704 -90.09879 4.25402 -0.69838 37.27961 -0.49889 -2.28122 -19.53202 -6.2915 -3.50017 -2.43209 44.04179 5.53609 2.58182 -31.09268 -6.48152 3.81201 2.71258
-0.00335 -0.00267 -0.01123 32.79457 -25.20277 -7.63444 44.25188 2.33232 -8.13283 4.05675 1.54336 -0.23171 -8.87998 -13.46451 -6.47565 26.47009 85.3062 1.44741 -0.28774 1.81064 11.27173 -16.08398 46.96924 -90.90565 4.67094 -0.82518 37.36394 -0.63774 -2.33 -19.50736 -6.27226 -3.48093 -2.42417 43.68247 5.82094 2.73619 -30.41006 -6.46974 3.71365 2.62255
-0.00327 -0.00279 -0.01335 32.74771 -25.36971 -7.73365 44.55462 2.3669 -8.25 3.63805 1.68969 -0.23282 -10.72739 -13.46751 -8.04976 25.49039 85.22988 1.46115 -0.24412 -1.45307 11.53931 -15.39373 46.67158 -91.9794 5.12854 -1.04145 37.40781 -0.74917 -2.33898 -19.49852 -6.25044 -3.46085 -2.41591 43.26803 6.16456 2.78888 -29.72071 -6.45927 3.61903 2.52916
-0.00332 -0.00285 -0.01552 32.69094 -25.6117 -7.7977 44.92982 2.365 -8.42094 3.12482 1.78691 -0.23389 -12.66584 -13.41089 -9.45055 24.95067 85.47016 1.58203 -0.123 -4.79539 11.95893 -14.9763 46.31443 -92.5218 5.51245 -1.07555 37.5354 -0.91758 -2.43154 -19.45677 -6.23417 -3.44232 -2.40824 42.96957 6.38395 3.04906 -29.04821 -6.44616 3.51748 2.44331
-0.00377 -0.00274 -0.01787 32.61043 -26.07912 -7.75849 45.52937 2.25676 -8.75771 2.32727 1.74465 -0.23487 -14.91567 -13.23818 -10.23454 25.66942 86.24153 1.91006 0.17139 -8.36473 12.83149 -15.37774 45.7583 -91.32235 5.58837 -0.54905 37.90914 -1.25132 -2.75843 -19.3201 -6.23248 -3.42992 -2.40318 42.99533 6.26123 3.94346 -28.40012 -6.42467 3.38869 2.37438
-0.00436 -0.00257 -0.02028 32.51911 -26.61838 -7.68519 46.19695 2.11307 -9.14476 1.43969 1.6539 -0.23582 -17.24531 -12.99897 -10.86255 26.82038 87.37502 2.35689 0.54816 -12.00931 13.85026 -16.04067 45.14891 -89.63593 5.60688 0.15002 38.36418 -1.64059 -3.16788 -19.15129 -6.2365 -3.41877 -2.39855 43.13663 6.01413 5.03493 -27.77302 -6.40074 3.2544 2.31369
-0.0049 -0.00243 -0.02265 32.43072 -27.11193 -7.63196 46.8168 1.98963 -9.49726 0.60918 1.58845 -0.23678 -19.4986 -12.75634 -11.66455 27.74034 88.58691 2.81232 0.91651 -15.61429 14.77861 -16.53735 44.58738 -88.36538 5.72463 0.72934 38.77095 -1.99867 -3.5369 -19.00017 -6.23833 -3.40573 -2.39305 43.22093 5.82458 5.99294 -27.15048 -6.37869 3.12812 2.25174
-0.0054 -0.00226 -0.02509 32.3515 -27.66038 -7.55952 47.50792 1.84854 -9.90059 -0.29092 1.50928 -0.23775 -21.92231 -12.64657 -12.0645 28.80767 88.8497 3.02387 1.17389 -19.24917 15.80782 -17.23241 43.92646 -86.29728 5.54595 1.47979 39.22458 -2.38219 -3.92027 -18.83582 -6.23845 -3.39808 -2.39029 43.32366 5.62993 7.13366 -26.46823 -6.35342 2.97888 2.17947
-0.00602 -0.00215 -0.02739 32.2496 -28.11197 -7.51877 48.06655 1.73596 -10.20832 -1.06588 1.44701 -0.2387 -24.00868 -12.25562 -13.22285 29.66984 91.07997 3.74634 1.66769 -22.83093 16.66239 -17.57914 43.45921 -85.7438 5.95544 1.9193 39.60124 -2.72564 -4.29095 -18.69161 -6.24353 -3.37973 -2.38205 43.41635 5.41708 7.94434 -25.9156 -6.33422 2.87579 2.13047
-0.00692 -0.00219 -0.02932 32.0966 -28.27416 -7.57606 48.24322 1.70952 -10.2536 -1.48501 1.4447 -0.23958 -25.15185 -11.00629 -16.88156 29.86403 99.48677 6.07071 2.91869 -26.31849 16.98854 -16.86755 43.54634 -89.77142 8.14169 1.4164 39.73363 -2.94659 -4.62614 -18.60944 -6.26042 -3.32952 -2.35767 43.44462 5.17899 7.76141 -25.7136 -6.33294 2.9048 2.1453
-0.00795 -0.00228 -0.03109 31.91961 -28.33714 -7.66602 48.28376 1.71324 -10.1984 -1.7722 1.46068 -0.24046 -25.94953 -9.49366 -21.24508 29.83612 109.71749 8.86711 4.38335 -29.7346 17.13374 -15.79793 43.82899 -95.29496 10.89873 0.60132 39.78809 -3.1249 -4.94198 -18.54911 -6.2822 -3.26888 -2.32794 43.46048 4.92788 7.24553 -25.64177 -6.33775 2.97986 2.18299
-0.00893 -0.00235 -0.03293 31.74763 -28.44839 -7.73959 48.38665 1.70398 -10.18002 -2.11292 1.46749 -0.24132 -26.90244 -8.16725 -25.03855 29.90668 118.55211 11.29904 5.66616 -33.13957 17.37113 -14.91903 44.01788 -99.94169 13.30013 -0.04237 39.88573 -3.32162 -5.2537 -18.47945 -6.30206 -3.21436 -2.30126 43.48733 4.68642 6.90474 -25.51168 -6.33939 3.03164 2.20915
